<?xml version="1.0" encoding="utf-8"?>
<!-- Generator: Adobe Illustrator 22.1.0, SVG Export Plug-In . SVG Version: 6.00 Build 0)  -->
<svg version="1.1" id="레이어_1" xmlns="http://www.w3.org/2000/svg" xmlns:xlink="http://www.w3.org/1999/xlink" x="0px"
	 y="0px" viewBox="0 0 783.7 212.5" style="enable-background:new 0 0 783.7 212.5;" xml:space="preserve">
<style type="text/css">
	.st0{fill:none;stroke:#2F59A8;stroke-width:2;stroke-miterlimit:10;}
	.st1{fill:#2F59A8;}
</style>
<g>
	<rect x="227.6" y="2.3" class="st0" width="554.3" height="207.7"/>
	<path class="st1" d="M1.1,211L36,1.3h54.4l41.7,111.4L175.7,1.1h57.1l31.7,210h-58.5L192.9,91.3l-49.2,119.5H121L73.9,90.2
		L55.1,210.8C55.1,210.8,1.1,211,1.1,211z"/>
	<g>
		<g>
			<path class="st1" d="M291.1,75c0-8.4,0.7-15.7,2.2-21.8c1.4-6.1,3.9-11.1,7.3-15.1c3.4-3.9,7.9-6.8,13.5-8.7
				c5.6-1.9,12.5-2.8,20.7-2.8c8.3,0,15.2,0.9,20.7,2.8c5.5,1.9,10,4.8,13.4,8.7c3.4,3.9,5.8,9,7.3,15.1c1.4,6.1,2.2,13.4,2.2,21.8
				c0,8-0.7,15.1-2,21.1c-1.3,6-3.6,11-6.9,15.1c-3.3,4-7.8,7-13.4,9c-5.6,2-12.7,3-21.2,3c-8.5,0-15.6-1-21.2-3
				c-5.6-2-10.1-5-13.4-9c-3.3-4-5.6-9-6.9-15.1C291.8,90.1,291.1,83.1,291.1,75z M322.9,59.7V98h12.3c4.1,0,7-0.5,8.8-1.4
				c1.8-0.9,2.6-3.1,2.6-6.5V51.8h-12.4c-3.9,0-6.8,0.5-8.6,1.4C323.8,54.2,322.9,56.3,322.9,59.7z"/>
		</g>
		<g>
			<path class="st1" d="M454.2,90.3l16,30.7h-32.5l-12.1-27.4h-6.4V121h-29.5V28.8h46.5c21.2,0,31.7,10.8,31.7,32.3
				C468,75.9,463.4,85.6,454.2,90.3z M426.1,52.4h-6.8v18.4h6.8c3.6,0,6.2-0.4,7.8-1.1c1.6-0.7,2.4-2.4,2.4-5v-6.1
				c0-2.6-0.8-4.3-2.4-5C432.3,52.8,429.7,52.4,426.1,52.4z"/>
		</g>
		<g>
			<path class="st1" d="M523.1,121h-41.3V28.8h41.3c8.3,0,15.2,0.8,20.8,2.5c5.6,1.7,10,4.4,13.4,8.1c3.4,3.7,5.8,8.4,7.2,14.3
				c1.4,5.8,2.2,12.9,2.2,21.2c0,8.3-0.7,15.4-2.2,21.2c-1.4,5.9-3.8,10.6-7.2,14.3c-3.4,3.7-7.8,6.4-13.4,8.1
				C538.3,120.2,531.4,121,523.1,121z M523.6,52.4h-12.3v45h12.3c4.1,0,7-0.5,8.8-1.4c1.8-0.9,2.6-3.1,2.6-6.5V60.3
				c0-3.4-0.9-5.5-2.6-6.5C530.6,52.9,527.7,52.4,523.6,52.4z"/>
		</g>
		<g>
			<path class="st1" d="M637.2,86.2h-29.5v11.2h36.2V121h-65.7V28.8h64.9l-3.7,23.6h-31.7v12.4h29.5V86.2z"/>
		</g>
		<g>
			<path class="st1" d="M722.1,90.3l16,30.7h-32.5l-12.1-27.4h-6.4V121h-29.5V28.8h46.5c21.2,0,31.7,10.8,31.7,32.3
				C735.9,75.9,731.3,85.6,722.1,90.3z M693.9,52.4h-6.8v18.4h6.8c3.6,0,6.2-0.4,7.8-1.1c1.6-0.7,2.4-2.4,2.4-5v-6.1
				c0-2.6-0.8-4.3-2.4-5C700.1,52.8,697.5,52.4,693.9,52.4z"/>
		</g>
	</g>
	<g>
		<g>
			<path class="st1" d="M731.9,141h7v49.5h-7V141z M724.8,141h3.6v49.5h-3.6V141z M714.3,141h3.5v49.5h-3.5V141z M696.9,141h14.4
				v49.5h-14.4V141z M679.2,141h8.2v49.5h-8.2V141z M670,141h3.5v49.5H670V141z M658.1,141h7.8v49.5h-7.8V141z M651.1,141h3.5v49.5
				h-3.5V141z M633.5,141h7v49.5h-7V141z M616,141h13.3v49.5H616V141z M601.9,141h7v49.5h-7V141z M587.9,141h7v49.5h-7V141z
				 M577.4,141h7v49.5h-7V141z M556.2,141h10.5v49.5h-10.5V141z M549.2,141h3.6v49.5h-3.6V141z"/>
		</g>
		<g>
			<path class="st1" d="M534.6,141h7v49.5h-7V141z M527.5,141h3.6v49.5h-3.6V141z M517,141h3.5v49.5H517V141z M499.6,141H514v49.5
				h-14.4V141z M482,141h8.2v49.5H482V141z M472.7,141h3.5v49.5h-3.5V141z M460.8,141h7.8v49.5h-7.8V141z M453.8,141h3.5v49.5h-3.5
				V141z M436.3,141h7v49.5h-7V141z M418.7,141h13.3v49.5h-13.3V141z M404.6,141h7v49.5h-7V141z M390.6,141h7v49.5h-7V141z
				 M380.1,141h7v49.5h-7V141z M359,141h10.5v49.5H359V141z M351.9,141h3.6v49.5h-3.6V141z M390.6,141h7v49.5h-7V141z M380.1,141h7
				v49.5h-7V141z M359,141h10.5v49.5H359V141z M351.9,141h3.6v49.5h-3.6V141z M390.6,141h7v49.5h-7V141z M380.1,141h7v49.5h-7V141z
				 M359,141h10.5v49.5H359V141z M351.9,141h3.6v49.5h-3.6V141z M390.6,141h7v49.5h-7V141z M380.1,141h7v49.5h-7V141z M359,141h10.5
				v49.5H359V141z M351.9,141h3.6v49.5h-3.6V141z"/>
		</g>
		<g>
			<rect x="334.7" y="141" class="st1" width="7" height="49.5"/>
		</g>
		<g>
			<rect x="324.2" y="141" class="st1" width="7" height="49.5"/>
		</g>
		<g>
			<rect x="303.1" y="141" class="st1" width="10.5" height="49.5"/>
		</g>
		<g>
			<rect x="296.1" y="141" class="st1" width="3.6" height="49.5"/>
		</g>
	</g>
</g>
</svg>
